<svg xmlns="http://www.w3.org/2000/svg" width="288" height="496" viewBox="0 0 288 496"><defs><style>.a{fill:#6c3d8e;}.b,.e,.g{fill:#fff;}.b{font-size:8px;font-family:Montserrat-Light, Montserrat;}.b,.n{font-weight:300;}.c{letter-spacing:-0.025em;}.d{letter-spacing:-0.015em;}.e{font-size:14px;font-family:Montserrat-SemiBold, Montserrat;font-weight:600;}.f{letter-spacing:-0.009em;}.h{letter-spacing:-0.001em;}.i{letter-spacing:0.001em;}.j{letter-spacing:-0.018em;}.k{fill:#6e3c95;}.l{fill:#0a123e;}.m{fill:#a796bf;}.n{fill:#a7a6b4;font-size:29px;font-family:Poppins-Light, Poppins;letter-spacing:-0.034em;}</style></defs><g transform="translate(-56 -120)"><g transform="translate(208 520)"><path class="a" d="M178.277,51.169H52.793a5.172,5.172,0,0,1-5.258-5.082V16.251a5.172,5.172,0,0,1,5.258-5.082H178.277a5.172,5.172,0,0,1,5.258,5.082V46.086a5.172,5.172,0,0,1-5.258,5.082" transform="translate(-47.535 -11.169)"/><g transform="translate(35.753 6)"><text class="b" transform="translate(1.418 8)"><tspan class="c" x="0" y="0">A</tspan><tspan class="d" y="0">v</tspan><tspan y="0">ailable on the</tspan></text><text class="e" transform="translate(0 24.808)"><tspan x="0" y="0">Google Pl</tspan><tspan class="f" y="0">a</tspan><tspan y="0">y</tspan></text></g><g transform="translate(7.62 6)"><path class="g" d="M64.693,19.843l-5.182-2.988-4.262,4.12,3.9,3.764,5.547-3.2a.977.977,0,0,0,0-1.693" transform="translate(-39.587 -6.649)"/><path class="g" d="M68.537,23.171l-5.7-3.293-12.5-6.4L64.454,27.119Z" transform="translate(-49.493 -13.474)"/><path class="g" d="M50.409,31.888,62.72,25.106l5.312-3.07-3.715-3.592Z" transform="translate(-49.356 -3.441)"/><path class="g" d="M50.072,13.657,50.06,41.21,64.318,27.426Z" transform="translate(-50.06 -13.103)"/></g></g><g transform="translate(56 520)"><path class="a" d="M130.742,51.169H5.258A5.172,5.172,0,0,1,0,46.086V16.251a5.172,5.172,0,0,1,5.258-5.082H130.742A5.172,5.172,0,0,1,136,16.251V46.086a5.172,5.172,0,0,1-5.258,5.082" transform="translate(0 -11.169)"/><g transform="translate(7.344 7)"><path class="g" d="M3.534,19.045C1.328,22.875,2.728,28.682,5.17,32.2c1.216,1.763,2.451,3.344,4.138,3.344.033,0,.066,0,.1,0a5.108,5.108,0,0,0,1.923-.51,5.247,5.247,0,0,1,2.276-.54,4.935,4.935,0,0,1,2.164.522,4.608,4.608,0,0,0,2.077.495c1.9-.036,3.07-1.738,4.1-3.245a14.447,14.447,0,0,0,1.8-3.679l.006-.024a.215.215,0,0,0-.112-.263l-.018-.009a5.438,5.438,0,0,1-3.3-4.992,5.617,5.617,0,0,1,2.65-4.693l.021-.009a.227.227,0,0,0,.1-.139.223.223,0,0,0-.036-.163,6.172,6.172,0,0,0-4.853-2.635,3.922,3.922,0,0,0-.423-.021,8.495,8.495,0,0,0-3.048.761,4.989,4.989,0,0,1-1.458.438,4.834,4.834,0,0,1-1.512-.444,7.363,7.363,0,0,0-2.659-.676H9.024a6.524,6.524,0,0,0-5.49,3.326" transform="translate(-2.433 -9.45)"/><path class="g" d="M11.252,13.589a5.969,5.969,0,0,0-3.933,2.019,5.57,5.57,0,0,0-1.413,4.138.215.215,0,0,0,.193.187c.094.006.184.009.278.009a5.048,5.048,0,0,0,3.712-1.9,5.906,5.906,0,0,0,1.385-4.262.219.219,0,0,0-.223-.19" transform="translate(4.508 -13.589)"/></g><g transform="translate(36.813 6)"><text class="b" transform="translate(0.685 8)"><tspan x="0" y="0">D</tspan><tspan class="d" y="0">o</tspan><tspan y="0">wnl</tspan><tspan class="h" y="0">o</tspan><tspan y="0">ad on t</tspan><tspan class="i" y="0">h</tspan><tspan y="0">e</tspan></text><text class="e" transform="translate(0 24.808)"><tspan x="0" y="0">App S</tspan><tspan class="j" y="0">t</tspan><tspan y="0">o</tspan><tspan class="f" y="0">r</tspan><tspan y="0">e</tspan></text></g></g><path class="k" d="M238.851,101.406c5.766-.107,23.654,2.588,26.282,13.391-2.655-13.9-20.7-17.418-26.9-17.312a7.214,7.214,0,0,0-1.77.214,2.048,2.048,0,0,0-.671.373.27.27,0,0,0-.134.107l-.027.027c-.027.027-.027.08-.054.107a1.35,1.35,0,0,0-.241.427,3.093,3.093,0,0,0-.107.48,2.12,2.12,0,0,0,.295,1.254c0,.027.027.027.054.054a3.012,3.012,0,0,0,.376.48,1.931,1.931,0,0,0,.644.373,2.423,2.423,0,0,0,.751.107c.134,0,.268-.027.375-.027C238.019,101.46,238.394,101.433,238.851,101.406Zm-86.41-45.158h.134c10.674.293,15.743,1.921,35.669,16.031C181.3,65.9,165.314,52.7,153.809,51.954c-.376-.027-.993-.053-1.69-.053-1.368.027-3.057.267-3.781,1.227a2.211,2.211,0,0,0,.7,3.121,2,2,0,0,0,1.127.187,9.636,9.636,0,0,0,1.206-.107C151.771,56.3,152.146,56.248,152.441,56.248Zm50.794,143.184c-3.03-10.909-15.5-29.527-18.934-29.475-.08,0-.161.027-.242.027a1.838,1.838,0,0,0-1.072,2.588C184.194,174.386,193.393,179.773,203.236,199.432Zm-74.046-40.7c8.153-.16,17.941.56,20.73,1.947a2.384,2.384,0,0,0,1.1.213,2.151,2.151,0,0,0,2.36-2.08,2.22,2.22,0,0,0-.563-1.414,3.392,3.392,0,0,0-2.44-.72h-.4c-1.046,0-2.146.027-3.272.054a133.072,133.072,0,0,0-24.727,2.427A68.543,68.543,0,0,1,129.189,158.729ZM55.92,95.538c-4.291-9.229-10-13.977-13.329-13.9-.134,0-.268.027-.4.027a2.314,2.314,0,0,0-.8.24c-.054.027-.134.053-.188.08H41.17l-.08.08a2.481,2.481,0,0,0-.376.373,1.481,1.481,0,0,0-.241.453,2.066,2.066,0,0,0-.08,1.334.091.091,0,0,0,.027.053,2.51,2.51,0,0,0,.241.56,1.944,1.944,0,0,0,.536.507,2.675,2.675,0,0,0,1.1.32C46.507,86.016,49.538,85.776,55.92,95.538Zm50.392,84.289a1.747,1.747,0,0,0-1.77,1.414,2.948,2.948,0,0,0,.509,1.814,22.708,22.708,0,0,1,1.073,2.187c2.2,6.829,1.5,11.63-3.487,30.328,4.505-8.109,8.609-21.5,6.651-31.288-.188-.907-.751-3.734-2.226-4.321A1.95,1.95,0,0,0,106.313,179.827ZM97.06,150.7c-3.969-8.535-15.554-29.795-25.88-34.863a10.715,10.715,0,0,0-4.291-1.307,2.52,2.52,0,0,0-1.207.293,2.174,2.174,0,0,0-.536,3.147c.483.693,2.467.987,3.272,1.36C78.1,123.653,84.08,130.081,97.06,150.7ZM197.12,69.9c-5.1-7.9-17.217-24.673-28.159-28.3a12.144,12.144,0,0,0-3.836-.774,2.945,2.945,0,0,0-1.77.507,2.191,2.191,0,0,0-.107,3.2c.589.614,2.574.64,3.432.88C176.927,48.406,181.405,51.26,197.12,69.9Zm81.208,48.2V118a5.2,5.2,0,0,0-.081-.933Zm-34.194,16.7c-6.275.107-18.371-.667-24.887-1.974-1.824-.373-3.621-.746-5.337-1.173-3.138,15.791-9.145,33.369-16.306,45.932,6.973,9.87,14.723,25.767,16.9,30.648a162.016,162.016,0,0,1,9.6,28.38,20.431,20.431,0,0,1-10.486,25.1s-.455.214-.537.267c-.08.027-.536.214-.536.214a20.473,20.473,0,0,1-7.295,1.493A20.7,20.7,0,0,1,186.769,253.1a161.872,161.872,0,0,1-14.777-26.114,238.364,238.364,0,0,1-10.674-29.448q-6.637,1.04-14.161,1.68c-2.226.186-5.176.293-8.153.346-4.452.08-8.877.054-10.808-.053-5.015-.267-10-.533-14.616-.907-4.05,22.353-16.494,65.19-37.09,65.564-34.677.64-16.9-64.924,3.647-89.2-.537-.293-1.046-.614-1.556-.96a94.219,94.219,0,0,1-14.616-13.844,94.3,94.3,0,0,1-7.08-9.949c-3.889-6.641-7.67-13.23-8.743-17.818a17.576,17.576,0,0,1,4.64-16,22.856,22.856,0,0,0-1.475-2.454A20.194,20.194,0,0,0,49.35,111.6a14.259,14.259,0,0,1-6.812,2.107,12.305,12.305,0,0,1-1.958-.133c-4.908-.8-7.724-4.695-10.352-8.376-2.655-3.707-5.605-7.788-4.666-12.8.885-4.828,4.854-7.656,6.866-9.1,1.743-1.227,5.1-3.627,9.333-3.707a15.04,15.04,0,0,1,1.877.107c5.283.774,8.341,4.988,10.593,8.109,2.28,3.121,5.525,7.629,4.425,13.07a13.352,13.352,0,0,1-4.64,7.388,13.24,13.24,0,0,0,1.556,2.748,14.7,14.7,0,0,0,1.85,2.107,18.152,18.152,0,0,1,7.214-1.654,17.47,17.47,0,0,1,9.655,2.614c4,2.534,8.984,8.3,13.972,14.164a94.825,94.825,0,0,1,7.053,9.976,94.545,94.545,0,0,1,8.233,18.325,7.4,7.4,0,0,1,.242,1.041c6.624-1.174,15.206-1.894,23.814-2.588,1.556-.133,4.747-.267,8.261-.32,3.728-.08,7.831-.08,10.7.08,3.754.213,7.321.507,10.754.88a92.376,92.376,0,0,1,14.161-33.4,90.591,90.591,0,0,1,6.678-8.376c-11.666-4.267-22.849-13.523-29.393-20C143.7,88.843,125.3,72.092,139.943,55.1a20.284,20.284,0,0,1,5.9-4.828,23.5,23.5,0,0,1,6.168-6.882,18.679,18.679,0,0,1,11.318-4.214c13.248-.24,25.075,14.43,29.473,20.405,4.371,5.922,15.716,22.3,18.049,35.263.027,0,.054.027.08.027a90.408,90.408,0,0,1,15.448-1.6h.161a91.854,91.854,0,0,1,12.229.934c9.815,1.707,14.8,2,19.363,4.908,1.877,1.2,9.815,6.668,11.022,14.75l1.582.08a20.847,20.847,0,0,0,3.272-.907,10.057,10.057,0,0,1,1.475-.507h.134c.831.107,1.555.96,2.065,2.107a7.147,7.147,0,0,1,.644,2.374c.027.293.054.56.054.827v.107c.054,2.854-1.073,5.2-2.495,5.228a1.817,1.817,0,0,1-.644.107,9.089,9.089,0,0,1-2.547-.613,7.411,7.411,0,0,1-2.253-1.174c-.644-.187-1.287-.373-1.931-.533a.094.094,0,0,1-.027-.054c-2.816,8.909-12.524,12.27-21.294,13.577A11.749,11.749,0,0,1,244.134,134.8Z" transform="translate(47.617 80.826)"/><g transform="translate(56 377)"><path class="l" d="M313.287,409.475l10.59-24.032,10.591,24.032Zm46.3,23.8-29.57-67.064a6.634,6.634,0,0,0-12.183,0l-29.616,67.064a6.7,6.7,0,0,0,12.325,5.262l6.888-15.788h32.943l6.936,15.788a6.752,6.752,0,0,0,6.092,4.006,5.9,5.9,0,0,0,2.764-.559A6.682,6.682,0,0,0,359.585,433.274Zm-100.656-33.3L281.516,373.1a6.686,6.686,0,0,0-10.262-8.569L239.67,402.07v-33.3a6.749,6.749,0,0,0-13.5,0v67.065a6.748,6.748,0,1,0,13.5,0V422.888l10.356-12.341,20.852,29.2a6.7,6.7,0,0,0,10.919-7.777Zm-44.7,42.567a6.67,6.67,0,0,1-6.7-6.613V368.864a6.68,6.68,0,0,1,6.7-6.66,6.76,6.76,0,0,1,6.794,6.66v67.065A6.782,6.782,0,0,1,214.225,442.542Zm-58.763-33.067,10.591-24.032,10.59,24.032Zm46.3,23.8-29.57-67.064a6.634,6.634,0,0,0-12.183,0l-29.616,67.064a6.7,6.7,0,0,0,12.325,5.262l6.889-15.788h32.943l6.935,15.788a6.752,6.752,0,0,0,6.092,4.006,5.893,5.893,0,0,0,2.765-.559A6.681,6.681,0,0,0,201.76,433.274ZM118.4,442.542H79.923a6.67,6.67,0,0,1-6.7-6.613V368.864a6.7,6.7,0,0,1,13.4,0v60.4h31.818a6.639,6.639,0,1,1-.047,13.273Z" transform="translate(-72.144 -362.11)"/><path class="m" d="M82.4,462.017a10.009,10.009,0,0,1-10.028-9.966V438.358a1.1,1.1,0,1,1,2.2,0v13.692a7.779,7.779,0,0,0,15.558,0V438.358a1.125,1.125,0,0,1,2.249,0v13.692A9.939,9.939,0,0,1,82.4,462.017Z" transform="translate(-72.37 -343.017)"/><path class="m" d="M108.951,462.017a1.159,1.159,0,0,1-.891-.419L92.175,441.572V460.9a1.125,1.125,0,0,1-2.249,0V438.359a1.106,1.106,0,0,1,.8-1.072,1.118,1.118,0,0,1,1.218.373l15.885,20.026V438.359a1.125,1.125,0,0,1,2.25,0V460.9a1.063,1.063,0,0,1-.75,1.07C109.232,461.97,109.092,462.017,108.951,462.017Z" transform="translate(-67.714 -343.018)"/><path class="m" d="M108.829,462.016A1.106,1.106,0,0,1,107.7,460.9V438.357a1.125,1.125,0,0,1,2.25,0V460.9A1.137,1.137,0,0,1,108.829,462.016Z" transform="translate(-62.999 -343.017)"/><path class="m" d="M120.815,462.023a1.156,1.156,0,0,1-1.078-.745l-8.388-22.541a1.118,1.118,0,0,1,.657-1.444,1.092,1.092,0,0,1,1.452.653l7.357,19.746,7.357-19.746a1.17,1.17,0,0,1,1.452-.653,1.117,1.117,0,0,1,.655,1.444l-8.434,22.541A1.054,1.054,0,0,1,120.815,462.023Z" transform="translate(-62.053 -343.024)"/><path class="m" d="M145.179,460.9a1.107,1.107,0,0,1-1.125,1.117H129.2a1.106,1.106,0,0,1-1.125-1.117V438.357a1.106,1.106,0,0,1,1.125-1.117h14.855a1.136,1.136,0,0,1,1.125,1.117,1.1,1.1,0,0,1-1.125,1.072H130.37v8.523h9.888a1.13,1.13,0,0,1,1.125,1.07,1.107,1.107,0,0,1-1.125,1.118H130.37v9.594h13.683A1.213,1.213,0,0,1,145.179,460.9Z" transform="translate(-57.596 -343.017)"/><path class="m" d="M160.036,460.106a1.142,1.142,0,0,1-.844,1.909.883.883,0,0,1-.8-.372l-6.935-7.126h-5.952v6.38a1.106,1.106,0,0,1-1.125,1.117,1.137,1.137,0,0,1-1.125-1.117V438.357a1.107,1.107,0,0,1,1.125-1.117h7.591a8.652,8.652,0,0,1,2.343,17Zm-14.527-7.777h6.467a6.45,6.45,0,1,0,0-12.9h-6.467Z" transform="translate(-53.569 -343.017)"/><path class="m" d="M166.028,462.025c-5.108,0-7.732-3.493-7.732-6.985a1.107,1.107,0,0,1,1.125-1.118,1.137,1.137,0,0,1,1.125,1.118c0,2.281,1.687,4.75,5.482,4.75s5.53-2.468,5.53-4.75c0-3.074-2.2-3.82-5.718-4.845-3.092-.931-7.028-2-7.028-6.473,0-3.214,2.484-6.52,7.216-6.52,4.78,0,7.264,3.259,7.264,6.52a1.125,1.125,0,0,1-2.25,0c0-2.05-1.546-4.285-5.014-4.285-3.42,0-4.966,2.236-4.966,4.285,0,2.654,2.014,3.353,5.389,4.331,3.279.931,7.357,2.1,7.357,6.987C173.808,458.487,171.135,462.025,166.028,462.025Z" transform="translate(-49.581 -343.027)"/><path class="m" d="M184.475,462.016a12.388,12.388,0,1,1,12.512-12.388A12.461,12.461,0,0,1,184.475,462.016Zm0-22.587a10.176,10.176,0,1,0,10.215,10.2A10.187,10.187,0,0,0,184.475,439.429Z" transform="translate(-45.956 -343.017)"/><path class="m" d="M220.172,445.865a8.633,8.633,0,0,1-8.715,8.616h-6.468v6.381a1.124,1.124,0,0,1-2.248,0V438.32a1.106,1.106,0,0,1,1.125-1.117h7.591A8.672,8.672,0,0,1,220.172,445.865Zm-2.2,0a6.531,6.531,0,0,0-6.467-6.473h-6.467v12.9h6.42A6.47,6.47,0,0,0,217.971,445.865Z" transform="translate(-37.793 -343.027)"/><path class="m" d="M235.327,460.9a1.107,1.107,0,0,1-1.125,1.117H219.347a1.107,1.107,0,0,1-1.125-1.117V438.357a1.107,1.107,0,0,1,1.125-1.117H234.2a1.136,1.136,0,0,1,1.125,1.117,1.1,1.1,0,0,1-1.125,1.072h-13.73v8.523h9.888a1.129,1.129,0,0,1,1.125,1.07,1.107,1.107,0,0,1-1.125,1.118h-9.888v9.594h13.683A1.22,1.22,0,0,1,235.327,460.9Z" transform="translate(-33.687 -343.017)"/><path class="m" d="M246.95,462.016H234.532a1.137,1.137,0,0,1-1.125-1.117V438.357a1.125,1.125,0,0,1,2.25,0V459.78H246.95a1.107,1.107,0,0,1,1.125,1.118A1.079,1.079,0,0,1,246.95,462.016Z" transform="translate(-29.66 -343.017)"/><path class="m" d="M254.769,462.016a10.008,10.008,0,0,1-10.028-9.966V438.357a1.1,1.1,0,1,1,2.2,0v13.692a7.779,7.779,0,0,0,15.558,0V438.357a1.125,1.125,0,0,1,2.25,0v13.692A9.939,9.939,0,0,1,254.769,462.016Z" transform="translate(-26.654 -343.017)"/><path class="m" d="M269.138,462.016h-5.718A1.107,1.107,0,0,1,262.3,460.9V438.357a1.107,1.107,0,0,1,1.125-1.117h5.718a12.388,12.388,0,1,1,0,24.776Zm-4.593-2.281h4.593a10.177,10.177,0,1,0,0-20.352h-4.593Z" transform="translate(-21.998 -343.017)"/><path class="m" d="M291.771,462.016a12.388,12.388,0,1,1,12.512-12.388A12.461,12.461,0,0,1,291.771,462.016Zm0-22.587a10.176,10.176,0,1,0,10.215,10.2A10.187,10.187,0,0,0,291.771,439.429Z" transform="translate(-17.499 -343.017)"/></g><text class="n" transform="translate(56 576)"><tspan x="52.896" y="30">Descárganos</tspan></text></g></svg>